<svg height="512pt" viewBox="0 0 512 512.001" width="512pt" xmlns="http://www.w3.org/2000/svg"><path d="m276.203125 72.453125c-9.152344 0-17.882813 1.808594-25.867187 5.0625-14.253907-24.238281-40.585938-40.515625-70.738282-40.515625-37.003906 0-68.273437 24.511719-78.488281 58.179688-6.265625-2.492188-13.089844-3.875-20.242187-3.875-30.300782 0-54.867188 24.566406-54.867188 54.867187 0 4.582031.570312 9.023437 1.625 13.273437 4.109375 3.800782 8.792969 6.980469 13.914062 9.390626l21.410157-10.210938c6.542969-28.382812 31.816406-48.492188 60.941406-48.492188h108.195313c27.972656 0 52.367187 18.558594 60.054687 45.164063.324219.320313.636719.648437.949219.972656 8.492187-5.328125 18.023437-9.148437 28.230468-11.074219 4.777344-9.347656 7.472657-19.933593 7.472657-31.15625 0-7.128906-1.089844-14.003906-3.109375-20.46875-12.480469-13.007812-30.027344-21.117187-49.480469-21.117187zm0 0" fill="#d8d8e4"/><path d="m326 302.066406h-296c-11.046875 0-20 8.953125-20 20 0 11.042969 8.953125 20 20 20h296c11.046875 0 20-8.957031 20-20 0-11.046875-8.953125-20-20-20zm0 0" fill="#fff"/><path d="m81.742188 382.066406h-15.613282c-7.183594 0-13.007812-5.824218-13.007812-13.007812v-26.992188h41.628906v26.992188c0 7.183594-5.824219 13.007812-13.007812 13.007812zm0 0" fill="#898998"/><path d="m482 422h-296c-11.046875 0-20 8.953125-20 20s8.953125 20 20 20h296c11.046875 0 20-8.953125 20-20s-8.953125-20-20-20zm0 0" fill="#fff"/><path d="m458.878906 342.066406h-204.757812c-19.394532 0-35.121094 15.726563-35.121094 35.125v44.875h275v-44.875c0-19.398437-15.722656-35.125-35.121094-35.125zm0 0" fill="#ff5d5d"/><path d="m237.742188 502h-15.613282c-7.183594 0-13.007812-5.824219-13.007812-13.007812v-26.992188h41.628906v26.992188c0 7.183593-5.824219 13.007812-13.007812 13.007812zm0 0" fill="#898998"/><path d="m445.871094 502h-15.609375c-7.183594 0-13.007813-5.824219-13.007813-13.007812v-26.992188h41.625v26.992188c0 7.183593-5.824218 13.007812-13.007812 13.007812zm0 0" fill="#898998"/><path d="m463.597656 342.066406-14.550781-63.4375c-2.628906-11.460937-8.316406-21.574218-16.074219-29.5625-5.394531-1.515625-11.0625-2.332031-16.886718-2.332031h-108.195313c-29.125 0-54.398437 20.109375-60.941406 48.492187l-10.800781 46.839844zm0 0" fill="#c9f3ff"/><path d="m485.492188 323.007812c0-8.890624-2.125-17.277343-5.878907-24.703124 13.632813-12.535157 22.179688-30.515626 22.179688-50.492188 0-5.539062-.671875-10.914062-1.910157-16.070312-12.523437-16.511719-32.351562-27.1875-54.679687-27.1875-9.152344 0-17.882813 1.808593-25.867187 5.066406-14.253907-24.238282-40.585938-40.515625-70.738282-40.515625-37.003906 0-68.273437 24.507812-78.488281 58.175781-6.265625-2.488281-13.089844-3.871094-20.242187-3.871094-30.300782 0-54.867188 24.566406-54.867188 54.867188 0 3.414062.316406 6.757812.914062 10 4.574219 5.417968 10.171876 9.945312 16.503907 13.269531l5.527343-23.984375c6.546876-28.382812 31.816407-48.492188 60.945313-48.492188h108.191406c29.15625 0 54.441407 20.144532 60.960938 48.558594l.253906.738282c5.542969 7.0625 9.632813 15.390624 11.746094 24.59375l14.523437 41.902343zm0 0" fill="#d8d8e4"/><path d="m190.582031 267.609375c-.597656-3.242187-.914062-6.582031-.914062-10 0-11.714844 3.683593-22.5625 9.9375-31.476563h-97.484375c-19.394532 0-35.121094 15.722657-35.121094 35.121094v40.878906h143.078125zm0 0" fill="#ff5d5d"/><path d="m239.199219 204.074219c7.152343 0 13.980469 1.382812 20.246093 3.875 5.742188-18.9375 18.148438-34.976563 34.488282-45.386719l-.886719-3.871094c-2.78125-12.113281-8.976563-22.714844-17.421875-30.902344-5.742188-1.726562-11.800781-2.65625-18.039062-2.65625h-108.195313c-29.125 0-54.398437 20.109376-60.941406 48.492188l-11.1875 48.507812h121.253906c10.039063-11.089843 24.546875-18.058593 40.683594-18.058593zm0 0" fill="#c9f3ff"/><path d="m67 272.128906c2.628906 0 5.210938-1.070312 7.070312-2.929687 1.859376-1.859375 2.929688-4.4375 2.929688-7.070313 0-2.628906-1.070312-5.199218-2.929688-7.070312-1.859374-1.859375-4.441406-2.929688-7.070312-2.929688s-5.210938 1.070313-7.070312 2.929688c-1.859376 1.863281-2.929688 4.441406-2.929688 7.070312 0 2.640625 1.070312 5.210938 2.929688 7.070313 1.859374 1.859375 4.441406 2.929687 7.070312 2.929687zm0 0"/><path d="m223 372.070312c-2.628906 0-5.210938 1.070313-7.070312 2.929688-1.859376 1.859375-2.929688 4.4375-2.929688 7.070312 0 2.628907 1.070312 5.210938 2.929688 7.070313 1.859374 1.859375 4.441406 2.929687 7.070312 2.929687s5.210938-1.070312 7.070312-2.929687c1.859376-1.859375 2.929688-4.441406 2.929688-7.070313 0-2.632812-1.070312-5.210937-2.929688-7.070312-1.859374-1.859375-4.441406-2.929688-7.070312-2.929688zm0 0"/><path d="m445 372.070312c-2.628906 0-5.210938 1.070313-7.070312 2.929688-1.859376 1.859375-2.929688 4.4375-2.929688 7.070312 0 2.628907 1.070312 5.199219 2.929688 7.070313 1.859374 1.859375 4.441406 2.929687 7.070312 2.929687s5.210938-1.070312 7.070312-2.929687c1.859376-1.859375 2.929688-4.441406 2.929688-7.070313 0-2.632812-1.070312-5.210937-2.929688-7.070312-1.859374-1.859375-4.441406-2.929688-7.070312-2.929688zm0 0"/><path d="m504 421.632812v-44.445312c0-12.148438-4.835938-23.179688-12.667969-31.300781 2.734375-7.277344 4.160157-15.0625 4.160157-22.878907 0-7.78125-1.347657-15.316406-4.011719-22.488281 12.984375-14.375 20.3125-33.214843 20.3125-52.710937 0-43.332032-35.253907-78.585938-78.589844-78.585938-7.417969 0-14.707031 1.027344-21.757813 3.0625-17.171874-23.945312-45.148437-38.515625-74.847656-38.515625-.101562 0-.199218.003907-.300781.003907 1.65625-6.390626 2.496094-12.988282 2.496094-19.734376 0-43.332031-35.253907-78.585937-78.589844-78.585937-7.417969 0-14.707031 1.027344-21.757813 3.0625-17.171874-23.941406-45.148437-38.515625-74.847656-38.515625-20.136718 0-39.261718 6.390625-55.308594 18.476562-12.820312 9.660157-22.996093 22.699219-29.304687 37.378907-4.613281-1.03125-9.335937-1.550781-14.117187-1.550781-35.769532 0-64.867188 29.101562-64.867188 64.867187 0 24.992187 14.613281 48.023437 37.230469 58.6875l9.914062 4.800781-7.253906 31.457032c-18.441406 5.667968-31.890625 22.859374-31.890625 43.136718v44.441406c-4.960938 5.355469-8 12.511719-8 20.371094 0 16.539063 13.457031 30 30 30h13.121094v16.992188c0 12.683594 10.324218 23.007812 23.007812 23.007812h15.613282c12.683593 0 23.007812-10.324218 23.007812-23.007812v-16.992188h66.914062c-4.835937 7.183594-7.664062 15.828125-7.664062 25.125v44.441406c-4.960938 5.355469-8 12.511719-8 20.367188 0 16.542969 13.457031 30 30 30h13.121094v16.992188c0 12.6875 10.324218 23.007812 23.007812 23.007812h15.613282c12.683593 0 23.007812-10.320312 23.007812-23.007812v-16.992188h146.503906v16.992188c0 12.6875 10.320313 23.007812 23.007813 23.007812h15.609375c12.6875 0 23.007812-10.320312 23.007812-23.007812v-16.992188h13.121094c16.542969 0 30-13.457031 30-30 0-7.855469-3.039062-15.015625-8-20.367188zm-22-9.632812h-296c-.648438 0-1.289062.027344-1.925781.066406h-.074219v-34.878906c0-13.851562 11.269531-25.121094 25.121094-25.121094h249.757812c13.851563 0 25.121094 11.273438 25.121094 25.121094v34.878906h-.074219c-.636719-.039062-1.277343-.066406-1.925781-.066406zm-394.855469-199.867188 92-92h51.203125l-92 92zm-14.453125-51.261718c5.53125-23.984375 26.585938-40.738282 51.199219-40.738282h26.96875l-89.382813 89.382813zm180.359375-35.15625c.28125-.28125.539063-.582032.78125-.890625 11.984375 5.4375 21.699219 15.285156 26.855469 27.890625-12.535156 9.613281-22.492188 22.460937-28.703125 36.910156-4.617187-1.03125-9.335937-1.550781-14.117187-1.550781-20.316407 0-38.46875 9.394531-50.375 24.058593h-20.859376zm135.035157 114.351562c7.6875 0 15.027343 1.632813 21.652343 4.613282l-87.390625 87.390624h-51.203125l92-92h24.941407zm38.179687 16.367188c6.269531 6.632812 10.859375 14.964844 13.03125 24.429687l11.75 51.203125h-100.414063zm-183.40625 75.632812h-25.988281l5.308594-23.027344c.546874-.648437 1.03125-1.371093 1.410156-2.175781 1.027344-2.183593 1.195312-4.550781.644531-6.71875l4.457031-19.339843c5.53125-23.984376 26.585938-40.738282 51.199219-40.738282h54.96875zm155.855469-142.710937c2.519531 4.28125 7.796875 6.066406 12.394531 4.191406 7.039063-2.871094 14.472656-4.324219 22.097656-4.324219 32.304688 0 58.585938 26.28125 58.585938 58.585938 0 16.339844-6.90625 32.058594-18.949219 43.136718-3.292969 3.027344-4.171875 7.875-2.15625 11.867188 3.1875 6.3125 4.804688 13.105469 4.804688 20.195312 0 4-.527344 7.894532-1.539063 11.65625-.640625-.226562-1.285156-.441406-1.9375-.640624l-13.222656-57.632813c-7.605469-33.164063-36.683594-56.324219-70.707031-56.324219h-108.191407c-33.984375 0-63.054687 23.128906-70.6875 56.246094l-2.128906 9.226562c-8.8125-8.359374-14.078125-20.125-14.078125-32.597656 0-24.738281 20.128906-44.867187 44.867188-44.867187 5.695312 0 11.261718 1.066406 16.550781 3.167969 2.601562 1.03125 5.515625.929687 8.035156-.285157 2.519531-1.214843 4.414063-3.429687 5.226563-6.105469 9.269531-30.554687 36.964843-51.082031 68.917968-51.082031 25.410156 0 49.210938 13.632813 62.117188 35.585938zm-352.816406-29.519531c-.03125-.015626-.066407-.03125-.101563-.046876-15.671875-7.375-25.796875-23.316406-25.796875-40.617187 0-24.738281 20.128906-44.867187 44.867188-44.867187 5.695312 0 11.261718 1.066406 16.550781 3.167968 2.597656 1.03125 5.511719.929688 8.035156-.285156 2.519531-1.214844 4.414063-3.429688 5.226563-6.105469 9.269531-30.554687 36.964843-51.082031 68.917968-51.082031 25.410156 0 49.210938 13.636719 62.117188 35.585938 2.515625 4.28125 7.796875 6.066406 12.394531 4.191406 7.039063-2.871094 14.472656-4.324219 22.097656-4.324219 32.304688 0 58.585938 26.28125 58.585938 58.585937 0 7.800782-1.503907 15.328126-4.457031 22.425782-5.636719 1.398437-11.117188 3.339844-16.390626 5.789062-11.734374-25.492187-37.261718-42.121094-65.859374-42.121094h-57.078126c-.003906 0-.007812 0-.011718 0h-51.101563c-33.988281 0-63.054687 23.128907-70.691406 56.246094l-1.449219 6.292969zm-17.898438 97.417968c0-13.851562 11.269531-25.121094 25.121094-25.121094h123.324218c-2.140624 6.292969-3.339843 13.011719-3.425781 20h-65.867187c-5.523438 0-10 4.476563-10 10 0 5.523438 4.476562 10 10 10h68.792968c2.25 7.199219 5.730469 13.945313 10.253907 19.933594h-156.199219c-.648438 0-1.289062.027344-1.925781.066406h-.074219zm-8 64.808594c0-5.128906 3.886719-9.367188 8.871094-9.929688h157.460937c.382813 0 .761719-.027343 1.132813-.070312h13.496094l-4.609376 20h-166.351562c-5.511719 0-10-4.484375-10-10zm64.75 46.996094c0 1.65625-1.351562 3.007812-3.007812 3.007812h-15.613282c-1.65625 0-3.007812-1.351562-3.007812-3.007812v-16.992188h21.628906zm156 119.933594c0 1.65625-1.351562 3.007812-3.007812 3.007812h-15.613282c-1.65625 0-3.007812-1.351562-3.007812-3.007812v-16.992188h21.628906zm208.128906 0c0 1.65625-1.351562 3.007812-3.007812 3.007812h-15.609375c-1.660157 0-3.007813-1.351562-3.007813-3.007812v-16.992188h21.625zm33.121094-36.992188h-296c-5.511719 0-10-4.484375-10-10 0-5.132812 3.886719-9.367188 8.871094-9.933594h298.257812c4.984375.566406 8.871094 4.800782 8.871094 9.933594 0 5.515625-4.484375 10-10 10zm0 0"/><path d="m405 372.066406h-141.1875c-5.519531 0-10 4.480469-10 10 0 5.523438 4.480469 10 10 10h141.1875c5.523438 0 10-4.476562 10-10 0-5.519531-4.476562-10-10-10zm0 0"/></svg>